<svg id="visual" viewBox="0 0 900 600" width="900" height="600" xmlns="http://www.w3.org/2000/svg" xmlns:xlink="http://www.w3.org/1999/xlink" version="1.1"><rect x="0" y="0" width="900" height="600" fill="#001220"></rect><defs><linearGradient id="grad1_0" x1="33.3%" y1="100%" x2="100%" y2="0%"><stop offset="20%" stop-color="#001220" stop-opacity="1"></stop><stop offset="80%" stop-color="#001220" stop-opacity="1"></stop></linearGradient></defs><defs><linearGradient id="grad2_0" x1="0%" y1="100%" x2="66.7%" y2="0%"><stop offset="20%" stop-color="#001220" stop-opacity="1"></stop><stop offset="80%" stop-color="#001220" stop-opacity="1"></stop></linearGradient></defs><g transform="translate(900, 600)"><path d="M-432.7 0C-422 -76.8 -411.4 -153.7 -374.7 -216.3C-338 -279 -275.3 -327.4 -208.5 -361.1C-141.7 -394.8 -70.9 -413.7 0 -432.7L0 0Z" fill="#FBAE3C"></path></g><g transform="translate(0, 0)"><path d="M432.7 0C412.4 70.1 392.1 140.1 358.5 207C325 273.9 278.3 337.6 216.3 374.7C154.4 411.8 77.2 422.2 0 432.7L0 0Z" fill="#FBAE3C"></path></g></svg>