<svg id="visual" viewBox="0 0 900 600" width="900" height="600" xmlns="http://www.w3.org/2000/svg" xmlns:xlink="http://www.w3.org/1999/xlink" version="1.1"><rect x="0" y="0" width="900" height="600" fill="#002233"></rect><path d="M163 0L159.5 14.3C156 28.7 149 57.3 161.7 85.8C174.3 114.3 206.7 142.7 221.7 171.2C236.7 199.7 234.3 228.3 230.3 257C226.3 285.7 220.7 314.3 211.8 343C203 371.7 191 400.3 198.5 428.8C206 457.3 233 485.7 230.3 514.2C227.7 542.7 195.3 571.3 179.2 585.7L163 600L0 600L0 585.7C0 571.3 0 542.7 0 514.2C0 485.7 0 457.3 0 428.8C0 400.3 0 371.7 0 343C0 314.3 0 285.7 0 257C0 228.3 0 199.7 0 171.2C0 142.7 0 114.3 0 85.8C0 57.3 0 28.7 0 14.3L0 0Z" fill="#0066FF" stroke-linecap="round" stroke-linejoin="miter"></path></svg>